<svg width="164" height="70" viewBox="0 0 164 70" fill="none" xmlns="http://www.w3.org/2000/svg">
  <path
    d="M12 19H32L20 31H12L0 19H12ZM44 8H78L43 35L78 62H44L9 35L44 8ZM12 51H32L20 39H12L0 51H12Z"
    fill="#FF173F"
  />
  <path
    d="M73 62L100 37C108 30 117 28 127 31L158 62H139L118 48C111 44 103 45 96 50L82 62H73ZM79 33L103 12C108 8 115 8 120 12L164 62H146L113 32C111 30 108 30 105 32L89 44L79 33Z"
    fill="#4354A7"
  />
  <path
    d="M58 62L89 31H81L120 0L111 24L123 18L98 46L91 39L68 62H58Z"
    fill="#B7D63F"
  />
</svg>
